<svg width="30" height="30" viewBox="0 0 30 30" fill="none" xmlns="http://www.w3.org/2000/svg">
<path d="M15 0.833336C7.18001 0.833336 0.833344 7.18 0.833344 15C0.833344 22.82 7.18001 29.1667 15 29.1667C22.82 29.1667 29.1667 22.82 29.1667 15C29.1667 7.18 22.82 0.833336 15 0.833336ZM15 5.08334C17.3517 5.08334 19.25 6.98167 19.25 9.33333C19.25 11.685 17.3517 13.5833 15 13.5833C12.6483 13.5833 10.75 11.685 10.75 9.33333C10.75 6.98167 12.6483 5.08334 15 5.08334ZM15 25.2C11.4583 25.2 8.32751 23.3867 6.50001 20.6383C6.54251 17.8192 12.1667 16.275 15 16.275C17.8192 16.275 23.4575 17.8192 23.5 20.6383C21.6725 23.3867 18.5417 25.2 15 25.2Z" fill="black"/>
</svg>
